<svg width="600" height="150" viewBox="0 0 600 150" fill="none" xmlns="http://www.w3.org/2000/svg">
  <defs>
    <filter id="frosted-glass">
      <feGaussianBlur in="SourceGraphic" stdDeviation="6" result="blur"/>
      </filter>
    
    <linearGradient id="NameGradient" x1="0%" y1="0%" x2="100%" y2="0%">
      <stop offset="0%" style="stop-color:#0078D4; stop-opacity:1" />
      <stop offset="100%" style="stop-color:#00B7C3; stop-opacity:1" />
    </linearGradient>
  </defs>

  <rect width="600" height="150" rx="15" fill="#1C1C1E"/> 
  
  <g id="VibrantBackground" opacity="0.6">
    <ellipse cx="60" cy="140" rx="90" ry="70" fill="#0078D4" transform="rotate(-10 60 140)"/>
    <rect x="350" y="10" width="200" height="100" fill="#7CBB00" transform="rotate(15 350 10)"/>
    <ellipse cx="550" cy="50" rx="60" ry="90" fill="#FF8C00" transform="rotate(45 550 50)"/>
    <rect x="0" y="0" width="600" height="150" rx="15" fill="#FFFFFF" opacity="0.1"/>
  </g>
  <rect x="15" y="15" width="570" height="120" rx="10" fill="#FFFFFF" opacity="0.9" style="filter:url(#frosted-glass);"/>
  
  <style>
    /* Clean, modern left-aligned typography */
    .name { font: 700 24px 'SF Pro Display', 'Segoe UI', Arial, sans-serif; fill: url(#NameGradient); letter-spacing: -0.5px; }
    .role { font: 400 16px 'SF Pro Display', 'Segoe UI', Arial, sans-serif; fill: #505050; }
    .company { font: 700 18px 'SF Pro Display', 'Segoe UI', Arial, sans-serif; fill: #000000;} 
    .contact-text { font: 400 14px 'SF Pro Display', 'Segoe UI', Arial, sans-serif; fill: #222222; }
    .contact-icon { fill: #0078D4; } 
  </style>

  <g transform="translate(35, 30)">
    
    <g transform="translate(0, 5)">
      <rect x="0" y="0" width="22" height="22" fill="#00BCF2" rx="3"/> 
      <rect x="25" y="0" width="22" height="22" fill="#7CBB00" rx="3"/>
      <rect x="0" y="25" width="22" height="22" fill="#FF8C00" rx="3"/>
      <rect x="25" y="25" width="22" height="22" fill="#F25022" rx="3"/>
    </g>

    <g transform="translate(85, 0)"> 
      <text x="250" y="25" class="name">Lynn Yang Mullins</text>
      
      <text x="0" y="25" class="role">Sales Excellence Lead</text>

      <text x="0" y="50" class="company">Microsoft Corporation</text>
      
      <g transform="translate(0, 80)">
        
        <g>
          <path class="contact-icon" d="M0 4C0 2.9 0.9 2 2 2H18C19.1 2 20 2.9 20 4V16C20 17.1 19.1 18 18 18H2C0.9 18 0 17.1 0 16V4ZM2 4L10 10L18 4V4H2ZM18 16L10 10L2 16V16H18Z" transform="scale(0.7) translate(0, 0)"/>
          <text x="18" y="10" class="contact-text">lmullins@microsoft.com</text>
        </g>
        
        <line x1="285" y1="0" x2="285" y2="15" stroke="#BBBBBB" stroke-width="1"/>

        <g transform="translate(300, 0)">
          <path class="contact-icon" d="M14 2H6C4.9 2 4 2.9 4 4V16C4 17.1 4.9 18 6 18H14C15.1 18 16 17.1 16 16V4C16 2.9 15.1 2 14 2ZM14 4V16H6V4H14ZM10 17C10.55 17 11 16.55 11 16C11 15.45 10.55 15 10 15C9.45 15 9 15.45 9 16C9 16.55 9.45 17 10 17Z" transform="scale(0.7) translate(0, 0)"/>
          <text x="18" y="10" class="contact-text">(65) 9109 3756</text>
        </g>
      </g>
    </g>
  </g>
</svg>
